# xmcd CD database file
#
# Track frame offsets:
#	150
#	22810
#	41310
#	64190
#	89760
#	107155
#	127860
#	148033
#	170383
#	192833
#	217198
#
# Disc length: 3184 seconds
#
# Revision: 3
# Processed by: cddbd v1.5.1PL0 Copyright (c) Steve Scherf et al.
# Submitted via: CDex 1.51
#
DISCID=980c6e0b
DTITLE=Pamela Williams - Saxtress
DYEAR=1996
DGENRE=Jazz
TTITLE0=A Matter Of Time
TTITLE1=I Can Love You Like That
TTITLE2=Castine
TTITLE3=The Secret Garden
TTITLE4=Natural Woman
TTITLE5=Ladies Night
TTITLE6=The Matador and The Maiden
TTITLE7=Latin Lullaby
TTITLE8=The Saxtress
TTITLE9=Slow Burn
TTITLE10=Angels Among Us
EXTD=YEAR: 1996
EXTT0=
EXTT1=
EXTT2=
EXTT3=
EXTT4=
EXTT5=
EXTT6=
EXTT7=
EXTT8=
EXTT9=
EXTT10=
PLAYORDER=
